<svg id="line_color" height="512" viewBox="0 0 74 74" width="512" xmlns="http://www.w3.org/2000/svg" data-name="line color"><path d="m25.783 18.686h22.434a10.008 10.008 0 0 1 10.008 10.008v39.78a3.556 3.556 0 0 1 -3.556 3.556h-35.338a3.556 3.556 0 0 1 -3.556-3.556v-39.78a10.008 10.008 0 0 1 10.008-10.008z" fill="#eeefee"/><path d="m55.09 36.53h3.13v-7.84a9.978 9.978 0 0 0 -4.55-8.38 9.963 9.963 0 0 1 1.42 5.14z" fill="#e1e6e9"/><path d="m55.09 61.822v3.408a3.559 3.559 0 0 1 -3.55 3.56h-35.34a2.593 2.593 0 0 1 -.4-.03 3.536 3.536 0 0 0 3.53 3.27h35.34a3.553 3.553 0 0 0 3.55-3.56v-6.648z" fill="#e1e6e9"/><path d="m26.031 15.453h21.938v3.233h-21.938z" fill="#d5d6db"/><path d="m47.969 19.186h-21.938a.5.5 0 0 1 -.5-.5v-3.232a.5.5 0 0 1 .5-.5h21.938a.5.5 0 0 1 .5.5v3.232a.5.5 0 0 1 -.5.5zm-21.437-1h20.937v-2.232h-20.938z" fill="#323c6b"/><rect fill="#9297ab" height="11.423" rx="1.746" width="30.535" x="21.733" y="4.03"/><path d="m52.27 5.78v7.93a1.743 1.743 0 0 1 -1.75 1.74h-.8v-7.42a1.758 1.758 0 0 0 -1.75-1.75h-26.24v-.5a1.746 1.746 0 0 1 1.75-1.75h27.04a1.746 1.746 0 0 1 1.75 1.75z" fill="#84879c"/><path d="m27.348 12.5a.5.5 0 0 1 -.5-.5v-4.512a.5.5 0 0 1 1 0v4.512a.5.5 0 0 1 -.5.5z" fill="#323c6b"/><path d="m33.782 12.5a.5.5 0 0 1 -.5-.5v-4.512a.5.5 0 0 1 1 0v4.512a.5.5 0 0 1 -.5.5z" fill="#323c6b"/><path d="m40.218 12.5a.5.5 0 0 1 -.5-.5v-4.512a.5.5 0 0 1 1 0v4.512a.5.5 0 0 1 -.5.5z" fill="#323c6b"/><path d="m46.652 12.5a.5.5 0 0 1 -.5-.5v-4.512a.5.5 0 0 1 1 0v4.512a.5.5 0 0 1 -.5.5z" fill="#323c6b"/><path d="m15.775 36.925h42.449v24.875h-42.449z" fill="#fe7058"/><g fill="#323c6b"><path d="m37 55.4a.5.5 0 0 1 -.5-.5v-11.074a.5.5 0 0 1 1 0v11.074a.5.5 0 0 1 -.5.5z"/><path d="m42.536 49.862h-11.072a.5.5 0 0 1 0-1h11.072a.5.5 0 0 1 0 1z"/><path d="m61.225 55.217a.5.5 0 0 1 -.5-.5v-11.937a.5.5 0 0 1 1 0v11.937a.5.5 0 0 1 -.5.5z"/><path d="m61.225 40.749a.5.5 0 0 1 -.5-.5v-1.094a.5.5 0 0 1 1 0v1.094a.5.5 0 0 1 -.5.5z"/><path d="m18.732 9.134a.5.5 0 0 1 -.5-.5v-.417a.5.5 0 1 1 1 0v.417a.5.5 0 0 1 -.5.5z"/><path d="m18.732 6.634a.5.5 0 0 1 -.5-.5v-.358a5.252 5.252 0 0 1 5.247-5.246h2.959a.5.5 0 1 1 0 1h-2.959a4.251 4.251 0 0 0 -4.246 4.246v.358a.5.5 0 0 1 -.501.5z"/></g><path d="m55.09 36.947h3.13v24.458h-3.13z" fill="#ea6453"/><path d="m54.669 72.53h-35.338a4.06 4.06 0 0 1 -4.056-4.056v-39.78a10.52 10.52 0 0 1 10.508-10.508h22.434a10.52 10.52 0 0 1 10.508 10.508v39.78a4.06 4.06 0 0 1 -4.056 4.056zm-28.886-53.344a9.519 9.519 0 0 0 -9.508 9.508v39.78a3.059 3.059 0 0 0 3.056 3.056h35.338a3.059 3.059 0 0 0 3.056-3.056v-39.78a9.519 9.519 0 0 0 -9.508-9.508z" fill="#323c6b"/><path d="m58.225 62.3h-42.45a.5.5 0 0 1 -.5-.5v-24.875a.5.5 0 0 1 .5-.5h42.45a.5.5 0 0 1 .5.5v24.875a.5.5 0 0 1 -.5.5zm-41.949-1h41.449v-23.875h-41.45z" fill="#323c6b"/><path d="m50.521 15.954h-27.042a2.249 2.249 0 0 1 -2.246-2.247v-7.931a2.249 2.249 0 0 1 2.246-2.246h27.042a2.249 2.249 0 0 1 2.246 2.247v7.931a2.249 2.249 0 0 1 -2.246 2.246zm-27.042-11.424a1.247 1.247 0 0 0 -1.246 1.247v7.931a1.247 1.247 0 0 0 1.246 1.247h27.042a1.247 1.247 0 0 0 1.246-1.247v-7.932a1.247 1.247 0 0 0 -1.246-1.246z" fill="#323c6b"/><path d="m34.187 58.888h-9.77a.65.65 0 1 1 0-1.3h9.77a.65.65 0 1 1 0 1.3z" fill="#fff"/><path d="m21.284 58.888h-.984a.65.65 0 1 1 0-1.3h.979a.65.65 0 1 1 0 1.3z" fill="#fff"/></svg>