<svg height="512" viewBox="0 0 74 74" width="512" xmlns="http://www.w3.org/2000/svg"><g id="Numbers"><text fill="#f00" font-family="ArialMT, Arial" font-size="18" transform="translate(31.995 -266.544)">6<tspan x="-5.005" y="124">16</tspan><tspan x="-5.005" y="248">26</tspan><tspan x="-5.005" y="372">36</tspan><tspan x="-5.005" y="496">46</tspan><tspan x="-5.005" y="620">56</tspan><tspan x="-5.005" y="744">66</tspan><tspan x="-5.005" y="868">76</tspan><tspan x="-5.005" y="992">86</tspan><tspan x="-5.005" y="1116">96</tspan><tspan x="-10.011" y="1240">106</tspan><tspan letter-spacing="-.074em" x="-9.343" y="1364">1</tspan><tspan x="-.668" y="1364">16</tspan><tspan x="-10.011" y="1488">126</tspan><tspan x="-10.011" y="1612">136</tspan><tspan x="-10.011" y="1736">146</tspan><tspan x="-10.011" y="1860">156</tspan><tspan x="-10.011" y="1984">166</tspan><tspan x="-10.011" y="2108">176</tspan><tspan x="-10.011" y="2232">186</tspan><tspan x="-10.011" y="2356">196</tspan><tspan x="-10.011" y="2480">206</tspan><tspan x="-10.011" y="2604">216</tspan><tspan x="-10.011" y="2728">226</tspan><tspan x="-10.011" y="2852">236</tspan><tspan x="-10.011" y="2976">246</tspan><tspan x="-10.011" y="3100">256</tspan><tspan x="-10.011" y="3224">266</tspan><tspan x="-10.011" y="3348">276</tspan><tspan x="-10.011" y="3472">286</tspan><tspan x="-10.011" y="3596">296</tspan></text></g><g id="color_styel" data-name="color styel"><circle cx="37" cy="37" fill="#eeefee" r="34"/><path d="m43.3 3.592a34 34 0 0 1 -16.6 65.816 34 34 0 1 0 16.6-65.816z" fill="#dbd8dd"/><path d="m43.081 37 10.794 10.794-6.081 6.081-10.794-10.794-10.794 10.794-6.081-6.081 10.794-10.794-10.794-10.794 6.081-6.081 10.794 10.794 10.794-10.794 6.081 6.081z" fill="#ef5261"/><path d="m47.794 54.375a.5.5 0 0 1 -.354-.146l-10.44-10.441-10.44 10.441a.5.5 0 0 1 -.707 0l-6.081-6.081a.5.5 0 0 1 0-.707l10.44-10.441-10.441-10.44a.5.5 0 0 1 0-.707l6.081-6.081a.5.5 0 0 1 .707 0l10.441 10.44 10.44-10.44a.5.5 0 0 1 .707 0l6.081 6.081a.5.5 0 0 1 0 .707l-10.44 10.44 10.44 10.44a.5.5 0 0 1 0 .707l-6.081 6.081a.5.5 0 0 1 -.353.147zm-10.794-11.794a.5.5 0 0 1 .354.146l10.44 10.44 5.374-5.374-10.44-10.44a.5.5 0 0 1 0-.707l10.44-10.44-5.374-5.374-10.44 10.44a.5.5 0 0 1 -.707 0l-10.44-10.44-5.374 5.374 10.44 10.44a.5.5 0 0 1 0 .707l-10.44 10.44 5.374 5.374 10.44-10.44a.5.5 0 0 1 .353-.146z" fill="#323c6b"/><path d="m37 71.5a34.5 34.5 0 1 1 34.5-34.5 34.539 34.539 0 0 1 -34.5 34.5zm0-68a33.5 33.5 0 1 0 33.5 33.5 33.538 33.538 0 0 0 -33.5-33.5z" fill="#323c6b"/><g fill="#dbd8dd"><path d="m26.265 10.225c-.015-.033-.031-.066-.049-.1a1.588 1.588 0 0 0 -1.995-.656 6.733 6.733 0 0 0 -1.289.643 1.262 1.262 0 0 0 -.422 1.864 1.593 1.593 0 0 0 2.053.455 4.624 4.624 0 0 1 1.009-.5 1.272 1.272 0 0 0 .693-1.706z"/><path d="m20.8 13.834a1.383 1.383 0 0 0 -.265-.433 1.59 1.59 0 0 0 -2.088-.236 27.26 27.26 0 0 0 -10.047 14.696 1.418 1.418 0 0 0 1.16 1.639 1.433 1.433 0 0 0 1.748-1 25.105 25.105 0 0 1 9.044-13.194 1.255 1.255 0 0 0 .448-1.472z"/></g></g></svg>