<svg height="512" viewBox="0 0 74 74" width="512" xmlns="http://www.w3.org/2000/svg"><g id="Numbers"><text fill="#f00" font-family="ArialMT, Arial" font-size="18" transform="translate(30.995 -390.544)">1<tspan letter-spacing="-.074em" x="-4.337" y="124">1</tspan><tspan x="4.337" y="124">1</tspan><tspan x="-5.005" y="248">21</tspan><tspan x="-5.005" y="372">31</tspan><tspan x="-5.005" y="496">41</tspan><tspan x="-5.005" y="620">51</tspan><tspan x="-5.005" y="744">61</tspan><tspan x="-5.005" y="868">71</tspan><tspan x="-5.005" y="992">81</tspan><tspan x="-5.005" y="1116">91</tspan><tspan x="-10.011" y="1240">101</tspan><tspan letter-spacing="-.074em" x="-8.675" y="1364">11</tspan><tspan x="8.675" y="1364">1</tspan><tspan x="-10.011" y="1488">121</tspan><tspan x="-10.011" y="1612">131</tspan><tspan x="-10.011" y="1736">141</tspan><tspan x="-10.011" y="1860">151</tspan><tspan x="-10.011" y="1984">161</tspan><tspan x="-10.011" y="2108">171</tspan><tspan x="-10.011" y="2232">181</tspan><tspan x="-10.011" y="2356">191</tspan><tspan x="-10.011" y="2480">201</tspan><tspan x="-9.343" y="2604">2</tspan><tspan letter-spacing="-.074em" x=".668" y="2604">1</tspan><tspan x="9.343" y="2604">1</tspan><tspan x="-10.011" y="2728">221</tspan><tspan x="-10.011" y="2852">231</tspan><tspan x="-10.011" y="2976">241</tspan><tspan x="-10.011" y="3100">251</tspan><tspan x="-10.011" y="3224">261</tspan><tspan x="-10.011" y="3348">271</tspan><tspan x="-10.011" y="3472">281</tspan><tspan x="-10.011" y="3596">291</tspan></text></g><g id="color_styel" data-name="color styel"><g fill="#323c6b"><path d="m69.726 54.741a.5.5 0 0 1 -.441-.733q.283-.536.549-1.082a.5.5 0 0 1 .9.438q-.273.561-.564 1.111a.5.5 0 0 1 -.444.266z"/><path d="m71.732 50.246a.5.5 0 0 1 -.469-.673 36.283 36.283 0 0 0 2.231-12.573.5.5 0 0 1 1 0 37.28 37.28 0 0 1 -2.294 12.918.5.5 0 0 1 -.468.328z"/><path d="m17.817 5.868a.5.5 0 0 1 -.26-.927q.494-.3 1-.587a.5.5 0 0 1 .493.87q-.491.278-.973.571a.5.5 0 0 1 -.26.073z"/><path d="m5.71 17.761a.5.5 0 0 1 -.422-.768 37.67 37.67 0 0 1 8.749-9.627.5.5 0 0 1 .613.79 36.669 36.669 0 0 0 -8.518 9.373.5.5 0 0 1 -.422.232z"/></g><circle cx="36.994" cy="37" fill="#eeefee" r="34"/><path d="m36.994 71.5a34.5 34.5 0 1 1 34.5-34.5 34.539 34.539 0 0 1 -34.5 34.5zm0-68a33.5 33.5 0 1 0 33.5 33.5 33.538 33.538 0 0 0 -33.5-33.5z" fill="#323c6b"/><path d="m54.35 7.763a34 34 0 0 1 -37.711 56.474 34 34 0 1 0 37.711-56.474z" fill="#dbd8dd"/><path d="m58.744 25.49-29.51 29.51-13.99-14.01 6.49-6.49 7.51 7.51 23.01-23.01z" fill="#ef5261"/><path d="m29.234 55.5a.5.5 0 0 1 -.354-.146l-13.99-14.01a.5.5 0 0 1 0-.707l6.49-6.49a.5.5 0 0 1 .707 0l7.157 7.153 22.656-22.654a.515.515 0 0 1 .707 0l6.49 6.49a.5.5 0 0 1 0 .707l-29.51 29.51a.5.5 0 0 1 -.353.147zm-13.283-14.509 13.284 13.3 28.8-28.8-5.783-5.783-22.652 22.655a.5.5 0 0 1 -.707 0l-7.156-7.156z" fill="#323c6b"/><path d="m36.994 71.5a34.5 34.5 0 1 1 34.5-34.5 34.539 34.539 0 0 1 -34.5 34.5zm0-68a33.5 33.5 0 1 0 33.5 33.5 33.538 33.538 0 0 0 -33.5-33.5z" fill="#323c6b"/><g fill="#dbd8dd"><path d="m49.026 11.479c.013-.038.025-.077.035-.117a1.761 1.761 0 0 0 -1.123-2.04 7.465 7.465 0 0 0 -1.531-.452 1.4 1.4 0 0 0 -1.751 1.194 1.766 1.766 0 0 0 1.322 1.92 5.127 5.127 0 0 1 1.2.355 1.41 1.41 0 0 0 1.848-.86z"/><path d="m41.864 10.277a1.533 1.533 0 0 0 .112-.551 1.763 1.763 0 0 0 -1.516-1.769 30.224 30.224 0 0 0 -19.251 4.336 1.572 1.572 0 0 0 -.3 2.2 1.588 1.588 0 0 0 2.172.512 27.834 27.834 0 0 1 17.309-3.871 1.391 1.391 0 0 0 1.474-.857z"/></g></g></svg>